# AST/ASF file generated using VICON BodyLanguage
# -----------------------------------------------
:version 1.10
:name VICON
:units
  mass 1.0
  length 0.45
  angle deg
:documentation
   .ast/.asf automatically generated from VICON data using
   VICON BodyBuilder and BodyLanguage model FoxedUp or BRILLIANT.MOD
:root
   order TX TY TZ RX RY RZ
   axis XYZ
   position 0 0 0  
   orientation 0 0 0 
:bonedata
  begin
     id 1 
     name lhipjoint
     direction 0.603808 -0.713975 0.35448 
     length 2.2025 
     axis 0 0 0  XYZ
  end
  begin
     id 2 
     name lfemur
     direction 0.34202 -0.939693 0  
     length 6.55877  
     axis 0 0 20  XYZ
    dof rx ry rz
    limits (-160.0 20.0)
           (-70.0 70.0)
           (-60.0 70.0)
  end
  begin
     id 3 
     name ltibia
     direction 0.34202 -0.939693 0   
     length 6.80302   
     axis 0 0 20   XYZ
    dof rx
    limits (-10.0 170.0)
  end
  begin
     id 4 
     name lfoot
     direction 0.091848 -0.25235 0.963267   
     length 2.03446   
     axis -90 7.62852e-016 20   XYZ
    dof rx rz
    limits (-45.0 90.0)
           (-70.0 20.0)
  end
  begin
     id 5 
     name ltoes
     direction 1.53608e-011 -4.21925e-011 1   
     length 1.02033   
     axis -90 7.62852e-016 20   XYZ
    dof rx
    limits (-90.0 20.0)
  end
  begin
     id 6 
     name rhipjoint
     direction -0.587285 -0.724947 0.359928   
     length 2.16916  
     axis 0 0 0  XYZ 
  end
  begin
     id 7 
     name rfemur
     direction -0.34202 -0.939693 0   
     length 6.43173   
     axis 0 0 -20   XYZ
    dof rx ry rz
    limits (-160.0 20.0)
           (-70.0 70.0)
           (-70.0 60.0)
  end
  begin
     id 8 
     name rtibia
     direction -0.34202 -0.939693 0   
     length 6.70662   
     axis 0 0 -20   XYZ
    dof rx
    limits (-10.0 170.0)
 end
 begin
     id 9 
     name rfoot
     direction -0.11854 -0.325686 0.938018   
     length 2.0773  
     axis -90 -7.62852e-016 -20   XYZ
    dof rx rz
    limits (-45.0 90.0)
           (-20.0 70.0)
  end
  begin
     id 10 
     name rtoes
     direction -1.53547e-011 -4.21838e-011 1   
     length 1.03267   
     axis -90 -7.62852e-016 -20   XYZ
    dof rx
    limits (-90.0 20.0)
  end
  begin
     id 11 
     name lowerback
     direction -0.0286554 0.999539 0.0100613   
     length 2.08751   
     axis 0 0 0   XYZ
    dof rx ry rz
    limits (-20.0 45.0)
           (-30.0 30.0)
           (-30.0 30.0)
  end
  begin
     id 12 
     name upperback
     direction 0.0227093 0.999705 -0.00860929   
     length 2.08517   
     axis 0 0 0   XYZ
    dof rx ry rz
    limits (-20.0 45.0)
           (-30.0 30.0)
           (-30.0 30.0)
  end
  begin
     id 13 
     name thorax
     direction 0.0351627 0.999285 -0.013892   
     length 2.08412   
     axis 0 0 0   XYZ
    dof rx ry rz
    limits (-20.0 45.0)
           (-30.0 30.0)
           (-30.0 30.0)
  end
  begin
     id 14 
     name lowerneck
     direction -0.0696283 0.997344 0.0213922   
     length 1.44164   
     axis 0 0 0   XYZ
    dof rx ry rz
    limits (-20.0 45.0)
           (-30.0 30.0)
           (-30.0 30.0)
  end
  begin
     id 15 
     name upperneck
     direction 0.0531 0.990412 -0.127531   
     length 1.45022   
     axis 0 0 0   XYZ
    dof rx ry rz
    limits (-20.0 45.0)
           (-30.0 30.0)
           (-30.0 30.0)
  end
  begin
     id 16
     name head
     direction 0.0188154 0.998548 -0.0504727  
     length 1.45845  
     axis 0 0 0   XYZ
    dof rx ry rz
    limits (-20.0 45.0)
           (-30.0 30.0)
           (-30.0 30.0)
  end
  begin
     id 17 
     name lclavicle
     direction 0.961559 0.260051 0.088188  
     length 2.86057  
     axis 0 0 0   XYZ
    dof ry rz
    limits (-20.0 10.0)
           (0.0 20.0)
  end
  begin
     id 18 
     name lhumerus
     direction 1 -4.48959e-011 2.88185e-027   
     length 4.36901   
     axis 180 -30 -90   XYZ
    dof rx ry rz
    limits (-60.0 90.0)
           (-90.0 90.0)
           (-90.0 90.0)
  end
  begin
     id 19
     name lradius
     direction 1 -4.48965e-011 -3.92618e-028   
     length 3.21737   
     axis 180 -30 -90   XYZ
    dof rx
    limits (-10.0 170.0)
  end
  begin
     id 20
     name lwrist
     direction 1 -4.49037e-011 2.57246e-027   
     length 1.60869   
     axis -1.61769e-015 90 90   XYZ
    dof ry
    limits (-180.0 0.0)
 end
  begin
     id 21 
     name lhand
     direction 1 -4.48807e-011 5.12958e-027   
     length 0.564313   
     axis -3.27988e-015 90 90   XYZ
    dof rx rz
    limits (-90.0 90.0)
           (-45.0 45.0)
  end
  begin
     id 22 
     name lfingers
     direction 1 -4.48879e-011 1.02687e-026   
     length 0.454963   
     axis -6.5598e-015 90 90   XYZ
    dof rx
    limits (0.0 90.0)
  end
  begin
     id 23
     name lthumb
     direction 0.707107 -6.3475e-011 0.707107   
     length 0.653239   
     axis -90 45 2.19363e-014   XYZ
    dof rx rz
    limits (-45.0 45.0)
           (-45.0 45.0)
  end
  begin
     id 24 
     name rclavicle
     direction -0.954677 0.253915 0.155304   
     length 3.11497  
     axis 0 0 0   XYZ 
    dof ry rz
    limits (-10.0 20.0)
           (-20.0 0.0)
  end
  begin
     id 25 
     name rhumerus
     direction -1 -4.48958e-011 -8.20169e-028  
     length 4.34118   
     axis 180 30 90   XYZ
    dof rx ry rz
    limits (-90.0 60.0)
           (-90.0 90.0)
           (-90.0 90.0)
  end
  begin
     id 26 
     name rradius
     direction -1 -4.48978e-011 1.5676e-027   
     length 3.09531   
     axis 180 30 90   XYZ
    dof rx
    limits (-10.0 170.0)
  end
  begin
     id 27 
     name rwrist
     direction -1 -4.49001e-011 2.57123e-027   
     length 1.54765   
     axis -1.61769e-015 -90 -90   XYZ
    dof ry
    limits (-180.0 0.0)
  end
  begin
     id 28
     name rhand
     direction -1 -4.48847e-011 5.13225e-027   
     length 0.597446   
     axis -3.27988e-015 -90 -90   XYZ
    dof rx rz
    limits (-90.0 90.0)
           (-45.0 45.0)
  end
  begin
     id 29
     name rfingers
     direction -1 -4.49094e-011 1.02974e-026   
     length 0.481677   
     axis -6.5598e-015 -90 -90   XYZ
    dof rx
    limits (0.0 90.0)
  end
  begin
     id 30
     name rthumb
     direction -0.707107 -6.34859e-011 0.707107   
     length 0.691594   
     axis -90 -45 -2.19363e-014   XYZ
    dof rx rz
    limits (-45.0 45.0)
           (-45.0 45.0)
  end
:hierarchy
  begin
    root lhipjoint rhipjoint lowerback
    lhipjoint lfemur
    lfemur ltibia
    ltibia lfoot
    lfoot ltoes
    rhipjoint rfemur
    rfemur rtibia
    rtibia rfoot
    rfoot rtoes
    lowerback upperback
    upperback thorax
    thorax lowerneck lclavicle rclavicle
    lowerneck upperneck
    upperneck head
    lclavicle lhumerus
    lhumerus lradius
    lradius lwrist
    lwrist lhand lthumb
    lhand lfingers
    rclavicle rhumerus
    rhumerus rradius
    rradius rwrist
    rwrist rhand rthumb
    rhand rfingers
  end

#!OML:ASF I:\Acrobat_Osman\acrobat\cartwheel_test 2\Patient 1\Session 1\acrobat.ASF
:FULLY-SPECIFIED
:DEGREES
191
root 6.55363 14.2127 -12.0771 66.0448 5.82732 13.7451
lowerback 36.2391 13.0704 10.8497
upperback 17.4664 18.4318 5.28443
thorax 3.20725 9.28771 -4.70437
lowerneck -15.5897 -0.502352 1.98367
upperneck 2.8128 -0.0647885 -12.3244
head 3.38909 -0.588246 -4.1347
rclavicle 0 1.59028e-014
rhumerus 53.1388 8.38693 -17.533
rradius 58.641
rwrist -3.96129
rhand -27.9474 48.3659
rfingers 7.12502
rthumb -1.33508 18.3904
lclavicle 0 1.59028e-014
lhumerus -66.005 13.824 2.36448
lradius 22.0815
lwrist 35.489
lhand -26.2564 58.0035
lfingers 7.12502
lthumb 0.298117 87.9831
rfemur -84.0193 -22.1638 -16.7363
rtibia 35.9345
rfoot -20.6427 -16.3429
rtoes -19.0593
lfemur -95.1533 -0.780208 -6.22194
ltibia 27.5905
lfoot -0.430329 19.3154
ltoes -16.2051
192
root 6.55408 14.1959 -12.0658 66.2019 5.9079 14.1628
lowerback 36.2105 13.0419 11.03
upperback 17.3882 18.4661 5.44038
thorax 3.13649 9.29682 -4.6423
lowerneck -15.0227 -0.510734 1.49958
upperneck 2.68076 -0.0464576 -11.7698
head 3.25515 -0.536715 -3.87069
rclavicle -1.90833e-014 4.13472e-014
rhumerus 52.2323 8.23316 -17.3721
rradius 58.9643
rwrist -4.6543
rhand -28.9188 48.0332
rfingers 7.12502
rthumb -2.27327 18.0656
lclavicle -1.90833e-014 4.13472e-014
lhumerus -67.7211 13.9229 1.26259
lradius 21.5969
lwrist 34.7375
lhand -25.6682 57.2011
lfingers 7.12502
lthumb 0.866222 87.1791
rfemur -84.2247 -22.6952 -16.6486
rtibia 36.472
rfoot -20.6321 -15.9667
rtoes -17.2761
lfemur -95.4102 -0.869966 -8.17675
ltibia 27.6294
lfoot 0.207346 17.589
ltoes -17.2526
193
root 6.55366 14.1874 -12.054 66.1839 6.06389 14.2617
lowerback 36.3091 12.8755 11.3366
upperback 17.2657 18.3808 5.38874
thorax 3.0633 9.26987 -4.83113
lowerneck -14.6091 -0.451635 1.16411
upperneck 2.45283 0.0463161 -11.448
head 3.12387 -0.4575 -3.70135
rclavicle -1.17681e-013 1.59028e-013
rhumerus 51.087 7.44187 -17.7204
rradius 58.0711
rwrist -5.03691
rhand -30.064 47.0912
rfingers 7.12502
rthumb -3.3793 17.1382
lclavicle -1.17681e-013 1.59028e-013
lhumerus -68.1622 13.7411 1.5236
lradius 22.1398
lwrist 36.1367
lhand -26.7998 58.7352
lfingers 7.12502
lthumb -0.226689 88.7148
rfemur -84.4106 -22.896 -16.3363
rtibia 36.888
rfoot -20.5101 -15.705
rtoes -16.6179
lfemur -95.4506 -0.70173 -9.95469
ltibia 27.7165
lfoot 0.427485 15.8299
ltoes -17.4112
194
root 6.5477 14.1786 -12.0402 66.0952 6.11071 14.0101
lowerback 36.3743 12.6653 11.4238
upperback 17.0415 18.1866 5.15705
thorax 2.86365 9.17985 -5.09843
lowerneck -14.0962 -0.343225 0.990153
upperneck 2.08154 0.174211 -11.3331
head 2.93734 -0.359245 -3.61937
rclavicle -1.27222e-014 6.67916e-014
rhumerus 49.8273 6.75311 -17.8063
rradius 56.9173
rwrist -5.79052
rhand -30.5798 46.9335
rfingers 7.12502
rthumb -3.87736 16.989
lclavicle -1.27222e-014 6.67916e-014
lhumerus -67.8491 13.5013 1.851
lradius 22.3284
lwrist 36.7424
lhand -26.9748 58.1849
lfingers 7.12502
lthumb -0.395793 88.1643
rfemur -84.7885 -22.7963 -15.7595
rtibia 37.1347
rfoot -20.2535 -15.465
rtoes -17.0181
lfemur -95.4204 -0.149467 -11.6884
ltibia 27.8979
lfoot 0.591986 13.9382
ltoes -17.6296
195
root 6.53477 14.1807 -12.0258 65.8685 6.03432 13.3593
lowerback 36.5182 12.4695 11.1642
upperback 16.6109 17.9417 4.88086
thorax 2.30816 9.01482 -5.30834
lowerneck -13.0539 -0.251466 1.12439
upperneck 1.56782 0.221423 -11.6288
head 2.62239 -0.293554 -3.71506
rclavicle 1.36764e-013 -1.81292e-013
rhumerus 48.5053 6.37948 -18.0362
rradius 55.3296
rwrist -5.79522
rhand -31.1024 46.9168
rfingers 7.12502
rthumb -4.38199 16.9822
lclavicle 1.36764e-013 -1.81292e-013
lhumerus -66.9968 12.7875 2.64844
lradius 22.722
lwrist 37.1442
lhand -26.7807 56.0282
lfingers 7.12502
lthumb -0.208282 86.0078
rfemur -85.3867 -22.3519 -14.7175
rtibia 37.2168
rfoot -19.8066 -15.002
rtoes -17.5454
lfemur -95.3344 0.797507 -13.3725
ltibia 28.1287
lfoot 1.2225 11.947
ltoes -19.837
